<?xml version="1.0" standalone="no"?>
<svg width="64" height="64" viewBox="0 0 416 384" version="1.1" xmlns="http://www.w3.org/2000/svg">
  <path d="M208 400c115 0 208 -93 208 -208s-93 -208 -208 -208s-208 93 -208 208s93 208 208 208zM208 383c-105 0 -191 -86 -191 -191c0 -47 17 -89 45 -122c18 8 62 24 90 32c2 1 3 0 3 10c0 11 -1 18 -4 24c-4 8 -7 20 -9 31c-4 5 -10 15 -14 33c-3 16 -1 22 1 28v2 c1 4 0 23 -3 38c-2 10 1 34 15 52c9 12 27 26 58 28h18c32 -2 49 -16 58 -28c14 -18 17 -42 15 -52c-3 -15 -4 -34 -3 -38c0 0 1 -1 1 -2c2 -6 3 -12 0 -28c-4 -18 -10 -27 -14 -32c-2 -11 -5 -24 -9 -32c-3 -7 -6 -15 -6 -23c0 -10 0 -10 2 -11c27 -8 73 -24 93 -32 c28 33 45 76 45 122c0 105 -86 191 -191 191z" transform="matrix(1,0,0,-1,0,384)"/>
</svg>